<svg width="20" height="24" viewBox="0 0 20 24" fill="none" xmlns="http://www.w3.org/2000/svg">
<path d="M2 8C2 5.87827 2.84285 3.84344 4.34315 2.34315C5.84344 0.842855 7.87827 0 10 0C12.1217 0 14.1566 0.842855 15.6569 2.34315C17.1571 3.84344 18 5.87827 18 8V12.697L20 15.697V20H14.389C14.1615 20.9937 13.6036 21.8808 12.8064 22.5162C12.0091 23.1515 11.0199 23.4975 10.0005 23.4975C8.98109 23.4975 7.99185 23.1515 7.19465 22.5162C6.39744 21.8808 5.83946 20.9937 5.612 20H0V15.697L2 12.697V8ZM7.708 20C7.90238 20.4462 8.2228 20.826 8.62995 21.0928C9.03709 21.3595 9.51325 21.5016 10 21.5016C10.4867 21.5016 10.9629 21.3595 11.3701 21.0928C11.7772 20.826 12.0976 20.4462 12.292 20H7.708ZM10 2C8.4087 2 6.88258 2.63214 5.75736 3.75736C4.63214 4.88258 4 6.4087 4 8V13.303L2 16.303V18H18V16.303L16 13.303V8C16 6.4087 15.3679 4.88258 14.2426 3.75736C13.1174 2.63214 11.5913 2 10 2Z" fill="white"/>
</svg>
